<mxfile host="app.diagrams.net" modified="2024-05-16T17:34:51.953Z" agent="Mozilla/5.0 (Windows NT 10.0; Win64; x64) AppleWebKit/537.36 (KHTML, like Gecko) Chrome/123.0.0.0 Safari/537.36 OPR/109.0.0.0" version="23.0.2" etag="hzdVqcVPjOJ9aaxbmDoy" type="github">
  <diagram name="Page-1" id="rd3n2F0TpGd15v88-v8m">
    <mxGraphModel>
      <root>
        <mxCell id="0" />
        <mxCell id="1" parent="0" />
      </root>
    </mxGraphModel>
  </diagram>
</mxfile>
